Coordinates
version=1
nRows=19
nColumns=33
inDegrees=yes

Units are S.I. units (second, meters, Newtons, ...)
Angles are in degrees.

endheader
time	ground_thorax_rot_x	ground_thorax_rot_y	ground_thorax_rot_z	ground_thorax_tx	ground_thorax_ty	ground_thorax_tz	clav_prot_r	clav_elev_r	scapula_abduction_r	scapula_elevation_r	scapula_upward_rot_r	scapula_winging_r	shoulder_elv_r	plane_of_elev_r	axial_rot_r	elbow_flexion_r	pro_sup_r	wrist_flex_r	wrist_dev_r	clav_prot_l	clav_elev_l	scapula_abduction_l	scapula_elevation_l	scapula_upward_rot_l	scapula_winging_l	shoulder_elv_l	plane_of_elev_l	axial_rot_l	elbow_flexion_l	pro_sup_l	wrist_flex_l	wrist_dev_l
      2.72000000	      2.08355638	      4.60852583	     11.70039830	     -0.12212933	      1.03397510	      0.02925465	      4.14241170	     11.22012967	     18.00125303	      6.94460909	     23.22664409	    -10.50689320	     22.62240677	    -72.40329493	     60.51560772	     63.04463347	    -26.79300246	     69.99642443	    -24.99999983	     12.63017106	     -6.94484028	    -19.57324442	    -19.39092848	    -44.61634814	      0.79714573	     65.45838673	    -36.11939050	     -4.00143689	     70.33121612	     15.24092218	     -0.44677109	    -24.99999983
      2.73000000	      2.27066840	      4.72754320	     11.64323714	     -0.12183077	      1.03416236	      0.02966569	      4.04757024	     11.33474018	     18.01946915	      6.95045102	     23.50802093	    -10.54973041	     23.37478826	    -72.48007602	     60.29936083	     64.14769915	    -27.38049184	     68.50560182	    -24.99999983	     12.68968119	     -7.37685084	    -19.78471593	    -19.15529612	    -45.00000000	      0.85406212	     66.06444118	    -35.49651905	     -3.64471552	     70.45055217	     14.41846200	      0.85631323	    -24.99999983
      2.74000000	      2.16798318	      4.64039411	     11.76060909	     -0.12156101	      1.03429977	      0.02989563	      4.01380283	     11.34770819	     18.20538001	      6.86349840	     23.80334758	    -10.63963333	     23.51845540	    -72.13922402	     60.17540759	     64.51037267	    -27.37551279	     68.43729355	    -24.99999983	     12.77315945	     -7.38772887	    -19.87439288	    -19.06748199	    -44.83334184	      0.92121913	     66.26980021	    -35.32906388	     -3.57071649	     70.57196717	     14.34925156	      0.92895322	    -24.99999983
      2.75000000	      2.35657929	      4.70706577	     11.65992239	     -0.12135640	      1.03432889	      0.03018049	      4.08294575	     11.46086263	     18.43891474	      6.90336276	     23.96612799	    -10.73072025	     24.56933715	    -72.18774873	     59.79034031	     66.05039102	    -27.65789663	     63.61320793	    -24.99999983	     12.92687936	     -7.79375993	    -20.17712178	    -18.75647960	    -45.00000000	      1.04835203	     66.62206924	    -34.76807881	     -3.07050778	     70.71464618	     12.65049044	      4.04843196	    -24.99999983
      2.76000000	      2.34777655	      4.63582544	     11.49774155	     -0.12104821	      1.03456283	      0.03050453	      3.96865348	     11.32495906	     18.45887843	      6.71772405	     24.18661075	    -10.75845962	     25.81609717	    -71.99595361	     59.14364234	     67.02089542	    -24.31476076	     59.55747256	    -24.99999983	     13.01828392	     -7.91272357	    -20.25051747	    -18.53391345	    -44.75530189	      1.12331255	     66.81097412	    -34.22048421	     -2.46219738	     70.54267624	     11.54863008	      6.98588813	    -24.99999983
      2.77000000	      2.24906376	      4.54540744	     11.64522025	     -0.12068686	      1.03438152	      0.03062850	      3.97109970	     11.33561953	     18.74339508	      6.61866570	     24.51328516	    -10.88041429	     25.94150217	    -71.57757984	     59.04170279	     67.29966146	    -24.31873481	     59.47635619	    -24.99999983	     13.14809119	     -7.91276668	    -20.42239957	    -18.45412611	    -44.58881870	      1.22940476	     67.04624207	    -34.05602733	     -2.53199284	     70.72513339	     11.53623665	      7.00542211	    -24.99999983
      2.78000000	      2.19010193	      4.52228175	     11.58050768	     -0.12037061	      1.03423759	      0.03066670	      4.01950697	     11.29654497	     19.12842436	      6.48001950	     24.83169813	    -11.02960350	     26.09054039	    -71.06694905	     58.90029127	     67.56329306	    -24.39484709	     59.22814483	    -24.99999983	     13.31376126	     -7.99843283	    -20.62371522	    -18.25303322	    -44.33193959	      1.36461658	     67.33982121	    -33.72194448	     -2.59840290	     70.85981834	     11.50587409	      7.07591959	    -24.99999983
      2.79000000	      2.39631025	      4.46051368	     11.54787687	     -0.12030669	      1.03403857	      0.03082399	      4.30547466	     11.53894005	     19.91445960	      6.55820027	     25.19433963	    -11.31511241	     26.33416944	    -71.01796075	     58.10449653	     68.85086830	    -25.80132160	     53.16093788	    -24.99999983	     13.54259823	     -8.57263726	    -21.08926799	    -17.85707382	    -44.65847110	      1.54250355	     67.71056154	    -33.26101850	     -1.99992412	     71.15269235	     10.79504565	      9.08132006	    -24.20070053
      2.80000000	      2.36658573	      4.29098618	     11.65820816	     -0.12039750	      1.03394204	      0.03100356	      4.66492277	     11.50050069	     20.51373121	      6.55182852	     25.07781627	    -11.48681075	     27.04995112	    -70.53469999	     56.76564288	     69.49021653	    -21.08695745	     46.68602509	    -24.99999983	     13.70847981	     -8.56428236	    -21.48811490	    -18.00977656	    -45.00000000	      1.68536066	     68.02037435	    -32.15984885	     -1.30839057	     71.01052090	      9.78787414	     12.44009832	    -21.62272517
      2.81000000	      2.34513354	      4.30840991	     11.55287121	     -0.11997846	      1.03389958	      0.03085481	      4.72678308	     11.34644704	     20.94673914	      6.32376176	     25.37816433	    -11.64368233	     27.26452757	    -69.93738011	     56.55419982	     69.37590590	    -21.13627343	     46.42021074	    -24.99999983	     13.90587438	     -8.76587366	    -21.71350914	    -17.67452768	    -44.68439375	      1.83790054	     68.32842249	    -31.74782469	     -1.45764617	     70.97255319	      9.79267481	     12.44898034	    -21.59363041
      2.82000000	      2.41311677	      4.16678938	     11.46673435	     -0.11975750	      1.03412641	      0.03085756	      4.88326600	     11.30629109	     21.70723430	      6.12260433	     25.89179597	    -11.91997925	     27.13172986	    -69.45519763	     55.92488249	     69.60806101	    -22.08845636	     42.18291131	    -24.99999983	     14.14836287	     -9.27610980	    -22.03134556	    -17.10645805	    -44.48289198	      2.01417127	     68.44067726	    -31.48390156	     -1.05498975	     70.98471072	      9.31507399	     13.27303444	    -20.33609376
      2.83000000	      2.43508861	      4.16657739	     11.55957180	     -0.11951739	      1.03453562	      0.03073902	      5.05574528	     11.04532371	     22.23538485	      5.85582681	     26.02680805	    -12.08125715	     27.33412073	    -68.77478242	     55.66806845	     69.05667094	    -21.99379106	     41.39643895	    -24.99999983	     14.33600310	     -9.51916312	    -22.22381282	    -16.71944935	    -44.13101037	      2.15219894	     68.60019609	    -30.85373942	     -1.21781252	     70.33956681	      9.22867099	     13.58039994	    -19.85056705
      2.84000000	      2.49936168	      4.05190455	     11.59312934	     -0.11951726	      1.03377370	      0.03067495	      5.60322598	     11.18994504	     23.31853095	      5.93045500	     26.12124636	    -12.44689828	     27.22315442	    -68.16834460	     54.75034310	     69.38213910	    -21.93603415	     36.21128164	    -24.99999983	     14.59567422	     -9.53279338	    -22.55834751	    -16.53136250	    -43.76245070	      2.36699380	     68.47711084	    -29.96765927	     -1.01572969	     70.15952364	      7.92074599	     15.95456136	    -16.94823541
      2.85000000	      2.50716453	      3.91836818	     11.55694039	     -0.11929348	      1.03374468	      0.03055067	      5.81956618	     11.11974431	     24.01157764	      5.77295588	     26.42117389	    -12.68752169	     27.11729299	    -67.18345951	     54.17460773	     68.81472579	    -20.67665611	     32.49770873	    -24.99999983	     14.79956222	     -9.84644207	    -22.81539428	    -16.13617680	    -43.53835686	      2.51427374	     68.58338090	    -29.19199531	     -0.62795935	     69.68242402	      6.75442115	     17.38894025	    -14.96686422
      2.86000000	      2.47262555	      3.97249052	     11.41417658	     -0.11892289	      1.03380199	      0.03032419	      6.00484828	     10.70105665	     24.60696648	      5.37456386	     26.56725271	    -12.86134746	     27.33194078	    -66.35539530	     53.98904546	     67.96127542	    -20.79452786	     32.16910678	    -24.99999983	     15.04027401	    -10.22991998	    -23.05271451	    -15.56059516	    -43.05551861	      2.67864786	     68.91863649	    -28.51726779	     -0.80181619	     68.97774814	      6.78176938	     17.44300026	    -14.77707193
      2.87000000	      2.45119884	      3.81130645	     11.52201409	     -0.11869517	      1.03363451	      0.03008414	      6.36914115	     10.55992298	     25.50838276	      5.18478240	     26.77314262	    -13.16166471	     26.99284955	    -65.27617113	     53.91690144	     67.05471394	    -22.48457770	     29.24948962	    -24.99999983	     15.21325526	    -10.31319802	    -23.16541769	    -15.19991811	    -42.43848096	      2.80948426	     68.54130529	    -27.53961097	     -0.40217529	     67.86804958	      5.85558217	     18.87600192	    -13.13897765
      2.88000000	      2.34820290	      3.79155147	     11.57808476	     -0.11841309	      1.03394287	      0.02984836	      6.62376114	     10.01249983	     26.18714655	      4.70430394	     26.84419087	    -13.34502323	     26.99116340	    -64.27566404	     53.94495562	     65.69632057	    -22.81828051	     28.63631001	    -24.99999983	     15.43795635	    -10.79343743	    -23.36590677	    -14.52727773	    -41.93354700	      2.93789720	     68.73337898	    -26.88420549	     -0.38657668	     66.61986892	      5.77858423	     19.13664637	    -12.65911591
      2.89000000	      2.30378575	      3.87877811	     11.33220125	     -0.11807900	      1.03367550	      0.02949694	      6.91300175	      9.56684318	     26.94649646	      4.28904882	     26.97954048	    -13.56281426	     27.13581755	    -63.27085033	     53.94147501	     64.36091869	    -23.17775509	     28.10966357	    -24.99999983	     15.72222956	    -11.24544564	    -23.63965603	    -13.82018624	    -41.30130838	      3.11748252	     69.01352938	    -25.98936197	     -0.56996704	     65.49411670	      5.76439772	     19.35051703	    -12.28692839
      2.90000000	      2.33310635	      3.55515299	     11.50519564	     -0.11776371	      1.03289967	      0.02909770	      7.29222680	      9.71932114	     28.00298345	      4.27392530	     27.43273091	    -13.96278011	     26.48974912	    -61.70606186	     54.83965120	     62.80389596	    -26.83290993	     25.31696228	    -24.99999983	     15.86410882	    -11.07345029	    -23.66509208	    -13.54099713	    -40.35739236	      3.25718253	     67.92998186	    -24.63368933	      0.23139979	     63.65432651	      4.15945092	     22.17908626	     -9.90264086
